<?xml version="1.0" encoding="UTF-8"?>
<svg width="1669px" height="617px" viewBox="0 0 1669 617" version="1.1" xmlns="http://www.w3.org/2000/svg" xmlns:xlink="http://www.w3.org/1999/xlink">
    <!-- Generator: Sketch 52.5 (67469) - http://www.bohemiancoding.com/sketch -->
    <title>10k+ copy</title>
    <desc>Created with Sketch.</desc>
    <g id="Visual" stroke="none" stroke-width="1" fill="none" fill-rule="evenodd">
        <path d="M28.79,607 L28.79,521.72 L159.99,521.72 L159.99,127.3 L41.91,203.56 L0.09,133.86 L153.43,34.64 L260.85,34.64 L260.85,521.72 L377.29,521.72 L377.29,607 L28.79,607 Z M631.49,616.84 C598.143167,616.84 569.443454,611.236723 545.39,600.03 C521.336546,588.823277 501.520078,571.330119 485.94,547.55 C470.359922,523.769881 458.743372,493.156854 451.09,455.71 C443.436628,418.263146 439.61,373.300262 439.61,320.82 C439.61,268.339738 443.436628,223.376854 451.09,185.93 C458.743372,148.483146 470.359922,117.870119 485.94,94.09 C501.520078,70.3098811 521.336546,52.8167227 545.39,41.61 C569.443454,30.4032773 598.143167,24.8 631.49,24.8 C664.836833,24.8 693.536546,30.4032773 717.59,41.61 C741.643454,52.8167227 761.459922,70.3098811 777.04,94.09 C792.620078,117.870119 804.236628,148.483146 811.89,185.93 C819.543372,223.376854 823.37,268.339738 823.37,320.82 C823.37,373.300262 819.543372,418.263146 811.89,455.71 C804.236628,493.156854 792.620078,523.769881 777.04,547.55 C761.459922,571.330119 741.643454,588.823277 717.59,600.03 C693.536546,611.236723 664.836833,616.84 631.49,616.84 Z M631.49,529.1 C662.650156,529.1 684.379938,519.123433 696.68,499.17 C708.980061,479.216567 715.13,446.55356 715.13,401.18 L715.13,240.46 C715.13,195.08644 708.980061,162.423433 696.68,142.47 C684.379938,122.516567 662.650156,112.54 631.49,112.54 C600.329844,112.54 578.600062,122.516567 566.3,142.47 C553.999938,162.423433 547.85,195.08644 547.85,240.46 L547.85,401.18 C547.85,446.55356 553.999938,479.216567 566.3,499.17 C578.600062,519.123433 600.329844,529.1 631.49,529.1 Z M907.01,0.2 L1006.23,0.2 L1006.23,283.1 L999.67,371.66 L1011.15,371.66 L1061.17,292.94 L1146.45,178.96 L1258.79,178.96 L1125.13,347.06 L1266.17,607 L1154.65,607 L1056.25,411.02 L1006.23,473.34 L1006.23,607 L907.01,607 L907.01,0.2 Z M1449.85,533.2 L1449.85,394.62 L1317.83,394.62 L1317.83,316.72 L1449.85,316.72 L1449.85,178.14 L1536.77,178.14 L1536.77,316.72 L1668.79,316.72 L1668.79,394.62 L1536.77,394.62 L1536.77,533.2 L1449.85,533.2 Z" id="10k+-copy" fill="#E55E00"></path>
    </g>
</svg>