<?xml version="1.0" encoding="UTF-8"?>
<svg width="1573px" height="583px" viewBox="0 0 1573 583" version="1.1" xmlns="http://www.w3.org/2000/svg" xmlns:xlink="http://www.w3.org/1999/xlink">
    <!-- Generator: Sketch 52.5 (67469) - http://www.bohemiancoding.com/sketch -->
    <title>12 M Copy</title>
    <desc>Created with Sketch.</desc>
    <g id="Visual" stroke="none" stroke-width="1" fill="none" fill-rule="evenodd">
        <path d="M29.61,583 L29.61,497.72 L160.81,497.72 L160.81,103.3 L42.73,179.56 L0.91,109.86 L154.25,10.64 L261.67,10.64 L261.67,497.72 L378.11,497.72 L378.11,583 L29.61,583 Z M815.17,583 L456.01,583 L456.01,487.88 L617.55,326.34 C645.976809,298.459861 666.066608,273.860107 677.82,252.54 C689.573392,231.219893 695.45,209.080115 695.45,186.12 L695.45,161.52 C695.45,138.013216 689.163396,119.836731 676.59,106.99 C664.016604,94.1432691 645.976784,87.72 622.47,87.72 C575.456432,87.72 546.210057,116.146382 534.73,173 L446.17,138.56 C458.743396,93.1864398 480.609844,58.8834495 511.77,35.65 C542.930156,12.4165505 582.563093,0.8 630.67,0.8 C661.283486,0.8 687.523224,4.4899631 709.39,11.87 C731.256776,19.2500369 749.15993,29.9099303 763.1,43.85 C777.04007,57.7900697 787.153302,75.0098975 793.44,95.51 C799.726698,116.010103 802.87,139.106538 802.87,164.8 C802.87,183.933429 800.956686,201.563253 797.13,217.69 C793.303314,233.816747 786.880045,250.079918 777.86,266.48 C768.839955,282.880082 756.676743,299.963244 741.37,317.73 C726.063257,335.496756 706.930115,355.859885 683.97,378.82 L565.07,496.9 L815.17,496.9 L815.17,583 Z M1475.27,256.64 L1481.83,159.88 L1470.35,159.88 L1432.63,253.36 L1329.31,473.94 L1226.81,253.36 L1189.09,160.7 L1177.61,160.7 L1184.17,256.64 L1184.17,583 L1087.41,583 L1087.41,10.64 L1199.75,10.64 L1285.03,196.78 L1326.85,314.04 L1334.23,314.04 L1376.05,196.78 L1459.69,10.64 L1572.03,10.64 L1572.03,583 L1475.27,583 L1475.27,256.64 Z" id="12-M-Copy" fill="#E55E00"></path>
    </g>
</svg>