<svg height="593" viewBox="0 0 1691 593" width="1691" xmlns="http://www.w3.org/2000/svg"><path d="m369.66 583h-359.16v-95.12l161.54-161.54c28.426809-27.880139 48.516608-52.479893 60.27-73.8s17.63-43.459885 17.63-66.42v-24.6c0-23.506784-6.286604-41.683269-18.86-54.53-12.573396-12.8467309-30.613216-19.27-54.12-19.27-47.013568 0-76.259943 28.426382-87.74 85.28l-88.56-34.44c12.5733962-45.3735602 34.4398442-79.6765505 65.6-102.91s70.793093-34.85 118.9-34.85c30.613486 0 56.853224 3.6899631 78.72 11.07s39.76993 18.0399303 53.71 31.98 24.053302 31.1598975 30.34 51.66c6.286698 20.500102 9.43 43.596538 9.43 69.29 0 19.133429-1.913314 36.763253-5.74 52.89s-10.249955 32.389918-19.27 48.79-21.183257 33.483244-36.49 51.25-34.439885 38.129885-57.4 61.09l-118.9 118.08h250.1zm259.94 9.84c-33.346833 0-62.046546-5.603277-86.1-16.81s-43.869922-28.699881-59.45-52.48-27.196628-54.393146-34.85-91.84-11.48-82.409738-11.48-134.89 3.826628-97.443146 11.48-134.89 19.269922-68.0598811 34.85-91.84 35.396546-41.2732773 59.45-52.48 52.753167-16.81 86.1-16.81 62.046546 5.6032773 86.1 16.81 43.869922 28.6998811 59.45 52.48 27.196628 54.393146 34.85 91.84 11.48 82.409738 11.48 134.89-3.826628 97.443146-11.48 134.89-19.269922 68.059881-34.85 91.84-35.396546 41.273277-59.45 52.48-52.753167 16.81-86.1 16.81zm0-87.74c31.160156 0 52.889938-9.976567 65.19-29.93s18.45-52.61644 18.45-97.99v-160.72c0-45.37356-6.149938-78.036567-18.45-97.99-12.300062-19.9534331-34.029844-29.93-65.19-29.93s-52.889939 9.9765669-65.19 29.93c-12.300062 19.953433-18.45 52.61644-18.45 97.99v160.72c0 45.37356 6.149938 78.036567 18.45 97.99 12.300061 19.953433 34.029844 29.93 65.19 29.93zm442.8 87.74c-33.34683 0-62.04655-5.603277-86.1-16.81-24.053454-11.206723-43.869922-28.699881-59.45-52.48s-27.196628-54.393146-34.85-91.84-11.48-82.409738-11.48-134.89 3.826628-97.443146 11.48-134.89 19.269922-68.0598811 34.85-91.84 35.396546-41.2732773 59.45-52.48c24.05345-11.2067227 52.75317-16.81 86.1-16.81s62.04655 5.6032773 86.1 16.81 43.86992 28.6998811 59.45 52.48 27.19663 54.393146 34.85 91.84 11.48 82.409738 11.48 134.89-3.82663 97.443146-11.48 134.89-19.26992 68.059881-34.85 91.84-35.39655 41.273277-59.45 52.48-52.75317 16.81-86.1 16.81zm0-87.74c31.16016 0 52.88994-9.976567 65.19-29.93s18.45-52.61644 18.45-97.99v-160.72c0-45.37356-6.14994-78.036567-18.45-97.99-12.30006-19.9534331-34.02984-29.93-65.19-29.93s-52.88994 9.9765669-65.19 29.93c-12.300062 19.953433-18.45 52.61644-18.45 97.99v160.72c0 45.37356 6.149938 78.036567 18.45 97.99 12.30006 19.953433 34.02984 29.93 65.19 29.93zm399.34 4.1v-138.58h-132.02v-77.9h132.02v-138.58h86.92v138.58h132.02v77.9h-132.02v138.58z" fill="#e55e00" fill-rule="evenodd"/></svg>
