<?xml version="1.0" encoding="UTF-8"?>
<svg width="1704px" height="593px" viewBox="0 0 1704 593" version="1.1" xmlns="http://www.w3.org/2000/svg" xmlns:xlink="http://www.w3.org/1999/xlink">
    <!-- Generator: Sketch 52.5 (67469) - http://www.bohemiancoding.com/sketch -->
    <title>2019</title>
    <desc>Created with Sketch.</desc>
    <g id="Visual" stroke="none" stroke-width="1" fill="none" fill-rule="evenodd">
        <path d="M369.75,583 L10.59,583 L10.59,487.88 L172.13,326.34 C200.556809,298.459861 220.646608,273.860107 232.4,252.54 C244.153392,231.219893 250.03,209.080115 250.03,186.12 L250.03,161.52 C250.03,138.013216 243.743396,119.836731 231.17,106.99 C218.596604,94.1432691 200.556784,87.72 177.05,87.72 C130.036432,87.72 100.790057,116.146382 89.31,173 L0.75,138.56 C13.3233962,93.1864398 35.1898442,58.8834495 66.35,35.65 C97.5101558,12.4165505 137.143093,0.8 185.25,0.8 C215.863486,0.8 242.103224,4.4899631 263.97,11.87 C285.836776,19.2500369 303.73993,29.9099303 317.68,43.85 C331.62007,57.7900697 341.733302,75.0098975 348.02,95.51 C354.306698,116.010102 357.45,139.106538 357.45,164.8 C357.45,183.933429 355.536686,201.563253 351.71,217.69 C347.883314,233.816747 341.460045,250.079918 332.44,266.48 C323.419955,282.880082 311.256743,299.963244 295.95,317.73 C280.643257,335.496756 261.510115,355.859885 238.55,378.82 L119.65,496.9 L369.75,496.9 L369.75,583 Z M629.69,592.84 C596.343167,592.84 567.643454,587.236723 543.59,576.03 C519.536546,564.823277 499.720078,547.330119 484.14,523.55 C468.559922,499.769881 456.943372,469.156854 449.29,431.71 C441.636628,394.263146 437.81,349.300262 437.81,296.82 C437.81,244.339738 441.636628,199.376854 449.29,161.93 C456.943372,124.483146 468.559922,93.8701189 484.14,70.09 C499.720078,46.3098811 519.536546,28.8167227 543.59,17.61 C567.643454,6.4032773 596.343167,0.8 629.69,0.8 C663.036833,0.8 691.736546,6.4032773 715.79,17.61 C739.843454,28.8167227 759.659922,46.3098811 775.24,70.09 C790.820078,93.8701189 802.436628,124.483146 810.09,161.93 C817.743372,199.376854 821.57,244.339738 821.57,296.82 C821.57,349.300262 817.743372,394.263146 810.09,431.71 C802.436628,469.156854 790.820078,499.769881 775.24,523.55 C759.659922,547.330119 739.843454,564.823277 715.79,576.03 C691.736546,587.236723 663.036833,592.84 629.69,592.84 Z M629.69,505.1 C660.850156,505.1 682.579939,495.123433 694.88,475.17 C707.180062,455.216567 713.33,422.55356 713.33,377.18 L713.33,216.46 C713.33,171.08644 707.180062,138.423433 694.88,118.47 C682.579939,98.5165669 660.850156,88.54 629.69,88.54 C598.529844,88.54 576.800061,98.5165669 564.5,118.47 C552.199939,138.423433 546.05,171.08644 546.05,216.46 L546.05,377.18 C546.05,422.55356 552.199939,455.216567 564.5,475.17 C576.800061,495.123433 598.529844,505.1 629.69,505.1 Z M912.59,583 L912.59,497.72 L1043.79,497.72 L1043.79,103.3 L925.71,179.56 L883.89,109.86 L1037.23,10.64 L1144.65,10.64 L1144.65,497.72 L1261.09,497.72 L1261.09,583 L912.59,583 Z M1703.89,224.66 C1703.89,259.100172 1699.51671,293.266497 1690.77,327.16 C1682.02329,361.053503 1669.45008,393.579844 1653.05,424.74 C1636.64992,455.900156 1616.97011,485.009865 1594.01,512.07 C1571.04989,539.130135 1545.63014,562.773232 1517.75,583 L1379.17,583 C1414.15684,556.213199 1444.35987,531.066784 1469.78,507.56 C1495.20013,484.053216 1516.51991,460.820115 1533.74,437.86 C1550.96009,414.899885 1564.62662,391.666784 1574.74,368.16 C1584.85338,344.653216 1592.36998,319.506801 1597.29,292.72 L1584.99,292.72 C1576.24329,318.960131 1562.16676,339.186596 1542.76,353.4 C1523.35324,367.613404 1499.71014,374.72 1471.83,374.72 C1425.3631,374.72 1388.7368,359.550152 1361.95,329.21 C1335.1632,298.869848 1321.77,254.453626 1321.77,195.96 C1321.77,134.733027 1338.03317,86.9001722 1370.56,52.46 C1403.08683,18.0198278 1450.50969,0.8 1512.83,0.8 C1576.79032,0.8 1624.62317,19.933142 1656.33,58.2 C1688.03683,96.466858 1703.89,151.95297 1703.89,224.66 Z M1512.83,291.9 C1568.59028,291.9 1596.47,261.560303 1596.47,200.88 L1596.47,176.28 C1596.47,115.599697 1568.59028,85.26 1512.83,85.26 C1457.06972,85.26 1429.19,115.599697 1429.19,176.28 L1429.19,200.88 C1429.19,261.560303 1457.06972,291.9 1512.83,291.9 Z" id="2019" fill="#E55E00"></path>
    </g>
</svg>