<?xml version="1.0" encoding="UTF-8"?>
<svg width="1678px" height="617px" viewBox="0 0 1678 617" version="1.1" xmlns="http://www.w3.org/2000/svg" xmlns:xlink="http://www.w3.org/1999/xlink">
    <!-- Generator: Sketch 52.5 (67469) - http://www.bohemiancoding.com/sketch -->
    <title>40k+ copy</title>
    <desc>Created with Sketch.</desc>
    <g id="Visual" stroke="none" stroke-width="1" fill="none" fill-rule="evenodd">
        <path d="M231.31,607 L231.31,497.12 L0.07,497.12 L0.07,410.2 L193.59,34.64 L327.25,34.64 L327.25,415.94 L395.31,415.94 L395.31,497.12 L327.25,497.12 L327.25,607 L231.31,607 Z M80.43,415.94 L231.31,415.94 L231.31,133.04 L219.01,133.04 L80.43,415.94 Z M640.49,616.84 C607.143167,616.84 578.443454,611.236723 554.39,600.03 C530.336546,588.823277 510.520078,571.330119 494.94,547.55 C479.359922,523.769881 467.743372,493.156854 460.09,455.71 C452.436628,418.263146 448.61,373.300262 448.61,320.82 C448.61,268.339738 452.436628,223.376854 460.09,185.93 C467.743372,148.483146 479.359922,117.870119 494.94,94.09 C510.520078,70.3098811 530.336546,52.8167227 554.39,41.61 C578.443454,30.4032773 607.143167,24.8 640.49,24.8 C673.836833,24.8 702.536546,30.4032773 726.59,41.61 C750.643454,52.8167227 770.459922,70.3098811 786.04,94.09 C801.620078,117.870119 813.236628,148.483146 820.89,185.93 C828.543372,223.376854 832.37,268.339738 832.37,320.82 C832.37,373.300262 828.543372,418.263146 820.89,455.71 C813.236628,493.156854 801.620078,523.769881 786.04,547.55 C770.459922,571.330119 750.643454,588.823277 726.59,600.03 C702.536546,611.236723 673.836833,616.84 640.49,616.84 Z M640.49,529.1 C671.650156,529.1 693.379938,519.123433 705.68,499.17 C717.980062,479.216567 724.13,446.55356 724.13,401.18 L724.13,240.46 C724.13,195.08644 717.980062,162.423433 705.68,142.47 C693.379938,122.516567 671.650156,112.54 640.49,112.54 C609.329844,112.54 587.600062,122.516567 575.3,142.47 C562.999938,162.423433 556.85,195.08644 556.85,240.46 L556.85,401.18 C556.85,446.55356 562.999938,479.216567 575.3,499.17 C587.600062,519.123433 609.329844,529.1 640.49,529.1 Z M916.01,0.2 L1015.23,0.2 L1015.23,283.1 L1008.67,371.66 L1020.15,371.66 L1070.17,292.94 L1155.45,178.96 L1267.79,178.96 L1134.13,347.06 L1275.17,607 L1163.65,607 L1065.25,411.02 L1015.23,473.34 L1015.23,607 L916.01,607 L916.01,0.2 Z M1458.85,533.2 L1458.85,394.62 L1326.83,394.62 L1326.83,316.72 L1458.85,316.72 L1458.85,178.14 L1545.77,178.14 L1545.77,316.72 L1677.79,316.72 L1677.79,394.62 L1545.77,394.62 L1545.77,533.2 L1458.85,533.2 Z" id="40k+-copy" fill="#E55E00"></path>
    </g>
</svg>