<?xml version="1.0" encoding="UTF-8"?>
<svg width="1700px" height="593px" viewBox="0 0 1700 593" version="1.1" xmlns="http://www.w3.org/2000/svg" xmlns:xlink="http://www.w3.org/1999/xlink">
    <!-- Generator: Sketch 52.5 (67469) - http://www.bohemiancoding.com/sketch -->
    <title>7000 copy</title>
    <desc>Created with Sketch.</desc>
    <g id="Visual" stroke="none" stroke-width="1" fill="none" fill-rule="evenodd">
        <path d="M81.31,583 L260.07,95.92 L87.05,95.92 L87.05,197.6 L0.95,197.6 L0.95,10.64 L360.11,10.64 L360.11,98.38 L188.73,583 L81.31,583 Z M621.69,592.84 C588.343167,592.84 559.643454,587.236723 535.59,576.03 C511.536546,564.823277 491.720078,547.330119 476.14,523.55 C460.559922,499.769881 448.943372,469.156854 441.29,431.71 C433.636628,394.263146 429.81,349.300262 429.81,296.82 C429.81,244.339738 433.636628,199.376854 441.29,161.93 C448.943372,124.483146 460.559922,93.8701189 476.14,70.09 C491.720078,46.3098811 511.536546,28.8167227 535.59,17.61 C559.643454,6.4032773 588.343167,0.8 621.69,0.8 C655.036833,0.8 683.736546,6.4032773 707.79,17.61 C731.843454,28.8167227 751.659922,46.3098811 767.24,70.09 C782.820078,93.8701189 794.436628,124.483146 802.09,161.93 C809.743372,199.376854 813.57,244.339738 813.57,296.82 C813.57,349.300262 809.743372,394.263146 802.09,431.71 C794.436628,469.156854 782.820078,499.769881 767.24,523.55 C751.659922,547.330119 731.843454,564.823277 707.79,576.03 C683.736546,587.236723 655.036833,592.84 621.69,592.84 Z M621.69,505.1 C652.850156,505.1 674.579939,495.123433 686.88,475.17 C699.180061,455.216567 705.33,422.55356 705.33,377.18 L705.33,216.46 C705.33,171.08644 699.180061,138.423433 686.88,118.47 C674.579939,98.5165669 652.850156,88.54 621.69,88.54 C590.529844,88.54 568.800062,98.5165669 556.5,118.47 C544.199938,138.423433 538.05,171.08644 538.05,216.46 L538.05,377.18 C538.05,422.55356 544.199938,455.216567 556.5,475.17 C568.800062,495.123433 590.529844,505.1 621.69,505.1 Z M1064.49,592.84 C1031.14317,592.84 1002.44345,587.236723 978.39,576.03 C954.336546,564.823277 934.520078,547.330119 918.94,523.55 C903.359922,499.769881 891.743372,469.156854 884.09,431.71 C876.436628,394.263146 872.61,349.300262 872.61,296.82 C872.61,244.339738 876.436628,199.376854 884.09,161.93 C891.743372,124.483146 903.359922,93.8701189 918.94,70.09 C934.520078,46.3098811 954.336546,28.8167227 978.39,17.61 C1002.44345,6.4032773 1031.14317,0.8 1064.49,0.8 C1097.83683,0.8 1126.53655,6.4032773 1150.59,17.61 C1174.64345,28.8167227 1194.45992,46.3098811 1210.04,70.09 C1225.62008,93.8701189 1237.23663,124.483146 1244.89,161.93 C1252.54337,199.376854 1256.37,244.339738 1256.37,296.82 C1256.37,349.300262 1252.54337,394.263146 1244.89,431.71 C1237.23663,469.156854 1225.62008,499.769881 1210.04,523.55 C1194.45992,547.330119 1174.64345,564.823277 1150.59,576.03 C1126.53655,587.236723 1097.83683,592.84 1064.49,592.84 Z M1064.49,505.1 C1095.65016,505.1 1117.37994,495.123433 1129.68,475.17 C1141.98006,455.216567 1148.13,422.55356 1148.13,377.18 L1148.13,216.46 C1148.13,171.08644 1141.98006,138.423433 1129.68,118.47 C1117.37994,98.5165669 1095.65016,88.54 1064.49,88.54 C1033.32984,88.54 1011.60006,98.5165669 999.3,118.47 C986.999938,138.423433 980.85,171.08644 980.85,216.46 L980.85,377.18 C980.85,422.55356 986.999938,455.216567 999.3,475.17 C1011.60006,495.123433 1033.32984,505.1 1064.49,505.1 Z M1507.29,592.84 C1473.94317,592.84 1445.24345,587.236723 1421.19,576.03 C1397.13655,564.823277 1377.32008,547.330119 1361.74,523.55 C1346.15992,499.769881 1334.54337,469.156854 1326.89,431.71 C1319.23663,394.263146 1315.41,349.300262 1315.41,296.82 C1315.41,244.339738 1319.23663,199.376854 1326.89,161.93 C1334.54337,124.483146 1346.15992,93.8701189 1361.74,70.09 C1377.32008,46.3098811 1397.13655,28.8167227 1421.19,17.61 C1445.24345,6.4032773 1473.94317,0.8 1507.29,0.8 C1540.63683,0.8 1569.33655,6.4032773 1593.39,17.61 C1617.44345,28.8167227 1637.25992,46.3098811 1652.84,70.09 C1668.42008,93.8701189 1680.03663,124.483146 1687.69,161.93 C1695.34337,199.376854 1699.17,244.339738 1699.17,296.82 C1699.17,349.300262 1695.34337,394.263146 1687.69,431.71 C1680.03663,469.156854 1668.42008,499.769881 1652.84,523.55 C1637.25992,547.330119 1617.44345,564.823277 1593.39,576.03 C1569.33655,587.236723 1540.63683,592.84 1507.29,592.84 Z M1507.29,505.1 C1538.45016,505.1 1560.17994,495.123433 1572.48,475.17 C1584.78006,455.216567 1590.93,422.55356 1590.93,377.18 L1590.93,216.46 C1590.93,171.08644 1584.78006,138.423433 1572.48,118.47 C1560.17994,98.5165669 1538.45016,88.54 1507.29,88.54 C1476.12984,88.54 1454.40006,98.5165669 1442.1,118.47 C1429.79994,138.423433 1423.65,171.08644 1423.65,216.46 L1423.65,377.18 C1423.65,422.55356 1429.79994,455.216567 1442.1,475.17 C1454.40006,495.123433 1476.12984,505.1 1507.29,505.1 Z" id="7000-copy" fill="#E55E00"></path>
    </g>
</svg>