<?xml version="1.0" encoding="UTF-8"?>
<svg width="1715px" height="593px" viewBox="0 0 1715 593" version="1.1" xmlns="http://www.w3.org/2000/svg" xmlns:xlink="http://www.w3.org/1999/xlink">
    <!-- Generator: Sketch 52.5 (67469) - http://www.bohemiancoding.com/sketch -->
    <title>9000 copy</title>
    <desc>Created with Sketch.</desc>
    <g id="Visual" stroke="none" stroke-width="1" fill="none" fill-rule="evenodd">
        <path d="M382.49,224.66 C382.49,259.100172 378.11671,293.266497 369.37,327.16 C360.62329,361.053503 348.050082,393.579844 331.65,424.74 C315.249918,455.900156 295.570115,485.009865 272.61,512.07 C249.649885,539.130135 224.230139,562.773232 196.35,583 L57.77,583 C92.7568416,556.213199 122.959873,531.066784 148.38,507.56 C173.800127,484.053216 195.119914,460.820115 212.34,437.86 C229.560086,414.899885 243.226616,391.666784 253.34,368.16 C263.453384,344.653216 270.969975,319.506801 275.89,292.72 L263.59,292.72 C254.84329,318.960131 240.766764,339.186596 221.36,353.4 C201.953236,367.613404 178.310139,374.72 150.43,374.72 C103.963101,374.72 67.3368006,359.550152 40.55,329.21 C13.7631994,298.869848 0.37,254.453626 0.37,195.96 C0.37,134.733027 16.6331707,86.9001722 49.16,52.46 C81.6868293,18.0198278 129.109688,0.8 191.43,0.8 C255.39032,0.8 303.223175,19.933142 334.93,58.2 C366.636825,96.466858 382.49,151.95297 382.49,224.66 Z M191.43,291.9 C247.190279,291.9 275.07,261.560303 275.07,200.88 L275.07,176.28 C275.07,115.599697 247.190279,85.26 191.43,85.26 C135.669721,85.26 107.79,115.599697 107.79,176.28 L107.79,200.88 C107.79,261.560303 135.669721,291.9 191.43,291.9 Z M637.51,592.84 C604.163167,592.84 575.463454,587.236723 551.41,576.03 C527.356546,564.823277 507.540078,547.330119 491.96,523.55 C476.379922,499.769881 464.763372,469.156854 457.11,431.71 C449.456628,394.263146 445.63,349.300262 445.63,296.82 C445.63,244.339738 449.456628,199.376854 457.11,161.93 C464.763372,124.483146 476.379922,93.8701189 491.96,70.09 C507.540078,46.3098811 527.356546,28.8167227 551.41,17.61 C575.463454,6.4032773 604.163167,0.8 637.51,0.8 C670.856833,0.8 699.556546,6.4032773 723.61,17.61 C747.663454,28.8167227 767.479922,46.3098811 783.06,70.09 C798.640078,93.8701189 810.256628,124.483146 817.91,161.93 C825.563372,199.376854 829.39,244.339738 829.39,296.82 C829.39,349.300262 825.563372,394.263146 817.91,431.71 C810.256628,469.156854 798.640078,499.769881 783.06,523.55 C767.479922,547.330119 747.663454,564.823277 723.61,576.03 C699.556546,587.236723 670.856833,592.84 637.51,592.84 Z M637.51,505.1 C668.670156,505.1 690.399939,495.123433 702.7,475.17 C715.000062,455.216567 721.15,422.55356 721.15,377.18 L721.15,216.46 C721.15,171.08644 715.000062,138.423433 702.7,118.47 C690.399939,98.5165669 668.670156,88.54 637.51,88.54 C606.349844,88.54 584.620062,98.5165669 572.32,118.47 C560.019939,138.423433 553.87,171.08644 553.87,216.46 L553.87,377.18 C553.87,422.55356 560.019939,455.216567 572.32,475.17 C584.620062,495.123433 606.349844,505.1 637.51,505.1 Z M1080.31,592.84 C1046.96317,592.84 1018.26345,587.236723 994.21,576.03 C970.156546,564.823277 950.340078,547.330119 934.76,523.55 C919.179922,499.769881 907.563372,469.156854 899.91,431.71 C892.256628,394.263146 888.43,349.300262 888.43,296.82 C888.43,244.339738 892.256628,199.376854 899.91,161.93 C907.563372,124.483146 919.179922,93.8701189 934.76,70.09 C950.340078,46.3098811 970.156546,28.8167227 994.21,17.61 C1018.26345,6.4032773 1046.96317,0.8 1080.31,0.8 C1113.65683,0.8 1142.35655,6.4032773 1166.41,17.61 C1190.46345,28.8167227 1210.27992,46.3098811 1225.86,70.09 C1241.44008,93.8701189 1253.05663,124.483146 1260.71,161.93 C1268.36337,199.376854 1272.19,244.339738 1272.19,296.82 C1272.19,349.300262 1268.36337,394.263146 1260.71,431.71 C1253.05663,469.156854 1241.44008,499.769881 1225.86,523.55 C1210.27992,547.330119 1190.46345,564.823277 1166.41,576.03 C1142.35655,587.236723 1113.65683,592.84 1080.31,592.84 Z M1080.31,505.1 C1111.47016,505.1 1133.19994,495.123433 1145.5,475.17 C1157.80006,455.216567 1163.95,422.55356 1163.95,377.18 L1163.95,216.46 C1163.95,171.08644 1157.80006,138.423433 1145.5,118.47 C1133.19994,98.5165669 1111.47016,88.54 1080.31,88.54 C1049.14984,88.54 1027.42006,98.5165669 1015.12,118.47 C1002.81994,138.423433 996.67,171.08644 996.67,216.46 L996.67,377.18 C996.67,422.55356 1002.81994,455.216567 1015.12,475.17 C1027.42006,495.123433 1049.14984,505.1 1080.31,505.1 Z M1523.11,592.84 C1489.76317,592.84 1461.06345,587.236723 1437.01,576.03 C1412.95655,564.823277 1393.14008,547.330119 1377.56,523.55 C1361.97992,499.769881 1350.36337,469.156854 1342.71,431.71 C1335.05663,394.263146 1331.23,349.300262 1331.23,296.82 C1331.23,244.339738 1335.05663,199.376854 1342.71,161.93 C1350.36337,124.483146 1361.97992,93.8701189 1377.56,70.09 C1393.14008,46.3098811 1412.95655,28.8167227 1437.01,17.61 C1461.06345,6.4032773 1489.76317,0.8 1523.11,0.8 C1556.45683,0.8 1585.15655,6.4032773 1609.21,17.61 C1633.26345,28.8167227 1653.07992,46.3098811 1668.66,70.09 C1684.24008,93.8701189 1695.85663,124.483146 1703.51,161.93 C1711.16337,199.376854 1714.99,244.339738 1714.99,296.82 C1714.99,349.300262 1711.16337,394.263146 1703.51,431.71 C1695.85663,469.156854 1684.24008,499.769881 1668.66,523.55 C1653.07992,547.330119 1633.26345,564.823277 1609.21,576.03 C1585.15655,587.236723 1556.45683,592.84 1523.11,592.84 Z M1523.11,505.1 C1554.27016,505.1 1575.99994,495.123433 1588.3,475.17 C1600.60006,455.216567 1606.75,422.55356 1606.75,377.18 L1606.75,216.46 C1606.75,171.08644 1600.60006,138.423433 1588.3,118.47 C1575.99994,98.5165669 1554.27016,88.54 1523.11,88.54 C1491.94984,88.54 1470.22006,98.5165669 1457.92,118.47 C1445.61994,138.423433 1439.47,171.08644 1439.47,216.46 L1439.47,377.18 C1439.47,422.55356 1445.61994,455.216567 1457.92,475.17 C1470.22006,495.123433 1491.94984,505.1 1523.11,505.1 Z" id="9000-copy" fill="#E55E00"></path>
    </g>
</svg>