<svg xmlns="http://www.w3.org/2000/svg" viewBox="0 0 243.11 107.5"><defs><style>.cls-1{fill:#1a1a1a;}.cls-2{fill:#e55e00;}</style></defs><title>m-stack-logo-black and ornage</title><g id="Layer_2" data-name="Layer 2"><g id="Layer_1-2" data-name="Layer 1"><polygon class="cls-1" points="99.56 53 86.56 47 86.56 0 99.56 6 99.56 53"/><polygon class="cls-1" points="143.56 53 156.56 47 156.56 0 143.56 6 143.56 53"/><path class="cls-1" d="M118.55,47l-7.19-3.32a10,10,0,0,1-5.81-9.08V9l7.2,3.32a10,10,0,0,1,5.8,9.08Z"/><path class="cls-1" d="M124.55,47l7.2-3.32a10,10,0,0,0,5.8-9.08V9l-7.19,3.32a10,10,0,0,0-5.81,9.08Z"/><path class="cls-2" d="M6.45,81v3.85h.73A6.87,6.87,0,0,1,14,80.56a7.12,7.12,0,0,1,6.86,4.37h.73c1.14-2.39,3.22-4.37,7.33-4.37,4.74,0,8.53,3.59,8.53,9v17.26H30.89V90c0-2.4-1.72-3.75-4.21-3.75C24,86.28,22,87.84,22,91.07v15.7H15.44V90c0-2.4-1.71-3.75-4.21-3.75-2.7,0-4.68,1.56-4.68,4.79v15.7H0V81Z"/><path class="cls-2" d="M55.33,80.25A13.14,13.14,0,0,1,68.85,93.87c0,8.12-5.93,13.63-13.52,13.63S41.81,102,41.81,93.87A13.14,13.14,0,0,1,55.33,80.25Zm0,21.22c4.16,0,7-3,7-7.6s-2.81-7.59-7-7.59-7,3-7,7.59S51.17,101.47,55.33,101.47Z"/><path class="cls-2" d="M77.22,81V73h6.55v8h7.07V86.7H83.77V99.49c0,1,.52,1.56,1.46,1.56h4.16v5.72H82.32a4.89,4.89,0,0,1-5.1-5V86.7H70.67V81Z"/><path class="cls-2" d="M107.43,80.25A13.14,13.14,0,0,1,121,93.87c0,8.12-5.93,13.63-13.52,13.63S93.91,102,93.91,93.87A13.14,13.14,0,0,1,107.43,80.25Zm0,21.22c4.16,0,7-3,7-7.6s-2.81-7.59-7-7.59-7,3-7,7.59S103.27,101.47,107.43,101.47Z"/><path class="cls-2" d="M132.08,84.72h.62c1-2.86,3.18-3.85,6.45-3.85h2.6v6H137.9c-3.32,0-5.72,1.76-5.72,5.4v14.46h-6.55V81h6.45Z"/><path class="cls-2" d="M149.87,69a4.47,4.47,0,1,1-4.62,4.47A4.41,4.41,0,0,1,149.87,69Zm3.28,37.75H146.6V81h6.55Z"/><path class="cls-2" d="M171.35,80.25a13.14,13.14,0,0,1,13.52,13.62c0,8.12-5.93,13.63-13.52,13.63S157.83,102,157.83,93.87A13.14,13.14,0,0,1,171.35,80.25Zm0,21.22c4.16,0,7-3,7-7.6s-2.81-7.59-7-7.59-7,3-7,7.59S167.19,101.47,171.35,101.47Z"/><path class="cls-2" d="M208.17,106.77v-4.16h-.73c-1,2.39-3.43,4.58-8.17,4.58-5.72,0-10-4.11-10-10.82V81h6.55V95.75c0,3.58,2.08,5.72,5.82,5.72,4.22,0,6.45-2.6,6.45-7.18V81h6.55v25.79Z"/><path class="cls-2" d="M230.27,80.25c5.3,0,9,2.34,12.53,6L238.07,90c-2-2.34-4.58-4.31-8-4.31-2.34,0-3.7,1-3.7,2.55,0,1.87,1.93,2.18,4.63,2.54l.78.11C240,92,243.11,94,243.11,98.76c0,5-4.73,8.74-11.6,8.74A15.19,15.19,0,0,1,218,100.22l5.26-3.28a9.13,9.13,0,0,0,8.37,5c2.55,0,5-1.1,5-3.12s-2.65-2.14-5.46-2.5l-.78-.1c-7.23-1-10.5-3.23-10.5-8S224.28,80.25,230.27,80.25Z"/></g></g></svg>